# xmcd
#
# Track frame offsets:
#	150
#	13593
#	28478
#	42020
#	56546
#	71760
#	88228
#	103317
#	116987
#	131132
#	147179
#	162712
#	180158
#	196397
#	209700
#	222821
#	237902
#	252517
#
# Disc length: 3580 seconds
#
# Revision: 1
# Processed by: cddbd v1.5.2PL0 Copyright (c) Steve Scherf et al.
# Submitted via: audiograbber 1.83.01
#
DISCID=1d0dfa12
DTITLE=Various Artist - Country Gala
DYEAR=2006
DGENRE=Country
TTITLE0=Neuerdinxx - My Pony-Song
TTITLE1=Linda Feller - Ich führ' Buch über jede Träne
TTITLE2=Martin Jones - Adler
TTITLE3=Chely Wright - C'est la vie (You never can tell)
TTITLE4=Truck Stop - Alle machen's
TTITLE5=Suzie Candell - Leaving this Town
TTITLE6=Gunter Gabriel - Lasst die Fahnen auf dem Dach
TTITLE7=Texas Lightning - No no never
TTITLE8=Katja Kaye - Lässt Du dich darauf ein
TTITLE9=Billy Swan - Stranger
TTITLE10=Dirk Daniels - Sonst keine nur Du
TTITLE11=Tom Astor and Joe Sun - Young Eagle
TTITLE12=Franzie - Tausche Dirndl gegen Jeans
TTITLE13=Lynn Anderson - Rose Garden
TTITLE14=Allstars - Zusammensteh'n
TTITLE15=Dirk Daniels and Linda Feller - Mit mir machst Du keinen Fehler
TTITLE16=Jonny Hill - Geblendet von der Nacht_Vers.2005
TTITLE17=John Brack - I need a little Taste of you
EXTD=
EXTT0=
EXTT1=
EXTT2=
EXTT3=
EXTT4=
EXTT5=
EXTT6=
EXTT7=
EXTT8=
EXTT9=
EXTT10=
EXTT11=
EXTT12=
EXTT13=
EXTT14=
EXTT15=
EXTT16=
EXTT17=
PLAYORDER=
